# xmcd CD database file
#
# Track frame offsets:
#	183
#	18258
#	32058
#	56133
#	67833
#	81558
#	96408
#	110058
#	127233
#	149658
#	159108
#	172083
#
# Disc length: 2562 seconds
#
# Revision: 0
# Processed by: cddbd v1.5.2PL0 Copyright (c) Steve Scherf et al.
# Submitted via: CDex 1.70beta2
#
DISCID=af0a000c
DTITLE=Various Artist - Living Chicago Blues - vol 6
DYEAR=1980
DGENRE=Blues
TTITLE0=Detroit Junior - If I hadn't been high
TTITLE1=Detroit Junior - Some nerve
TTITLE2=Detroit Junior - Somebody to shack
TTITLE3=Detroit Junior - I got money
TTITLE4=Luther "Guitar Junior" Johnson - Somebody have mercy
TTITLE5=Luther "Guitar Junior" Johnson - Go to have money
TTITLE6=Luther "Guitar Junior" Johnson - Just like mama said
TTITLE7=Luther "Guitar Junior" Johnson - Look what you done
TTITLE8=Queen Sylvia Embry - Going upstairs
TTITLE9=Queen Sylvia Embry - Blues this morning
TTITLE10=Queen Sylvia Embry - Tired of being pushed around
TTITLE11=Queen Sylvia Embry - Please let me stay
EXTD=YEAR: 1980
EXTT0=
EXTT1=
EXTT2=
EXTT3=
EXTT4=
EXTT5=
EXTT6=
EXTT7=
EXTT8=
EXTT9=
EXTT10=
EXTT11=
PLAYORDER=
